<svg xmlns="http://www.w3.org/2000/svg" viewBox="0 0 100 100" width="100" height="100">
  <circle cx="50" cy="50" r="48" fill="white" stroke="black" stroke-width="2"/>
  <path d="M50 2 C 75 2, 98 25, 98 50 C 98 75, 75 98, 50 98 C 25 98, 2 75, 2 50 C 2 25, 25 2, 50 2" fill="none" stroke="black" stroke-width="2"/>
  <g stroke="black" stroke-width="1.5" fill="none">
    <path d="M50 2 L50 98 M2 50 L98 50"/>
    <path d="M50 2 C 75 2, 98 25, 98 50 M50 2 C 25 2, 2 25, 2 50"/>
    <path d="M98 50 C 98 75, 75 98, 50 98 M2 50 C 2 75, 25 98, 50 98"/>
    <ellipse cx="50" cy="25" rx="23" ry="15"/>
    <ellipse cx="50" cy="75" rx="23" ry="15"/>
    <ellipse cx="25" cy="50" rx="15" ry="23"/>
    <ellipse cx="75" cy="50" rx="15" ry="23"/>
  </g>
</svg>